<?xml version="1.0" encoding="UTF-8"?>
<svg id="Outline" xmlns="http://www.w3.org/2000/svg" version="1.1" viewBox="0 0 512 512">
  <!-- Generator: Adobe Illustrator 29.0.1, SVG Export Plug-In . SVG Version: 2.1.0 Build 192)  -->
  <defs>
    <style>
      .st0 {
        fill: #4a3ee5;
      }
    </style>
  </defs>
  <path class="st0" d="M426.7,0H85.3C38.2,0,0,38.2,0,85.3v256c0,47.1,38.2,85.3,85.3,85.3h61.9l95,80.3c8,6.7,19.6,6.7,27.6,0l95.1-80.3h61.9c47.1,0,85.3-38.2,85.3-85.3V85.3c0-47.1-38.2-85.3-85.3-85.3ZM469.3,341.3c0,23.6-19.1,42.7-42.7,42.7h-61.9c-10.1,0-19.8,3.6-27.5,10.1l-81.3,68.6-81.2-68.6h0c-7.7-6.5-17.5-10.1-27.6-10.1h-61.9c-23.6,0-42.7-19.1-42.7-42.7V85.3c0-23.6,19.1-42.7,42.7-42.7h341.3c23.6,0,42.7,19.1,42.7,42.7v256Z"/>
  <path class="st0" d="M149.3,149.3h106.7c11.8,0,21.3-9.6,21.3-21.3s-9.6-21.3-21.3-21.3h-106.7c-11.8,0-21.3,9.6-21.3,21.3s9.6,21.3,21.3,21.3Z"/>
  <path class="st0" d="M362.7,192h-213.3c-11.8,0-21.3,9.6-21.3,21.3s9.6,21.3,21.3,21.3h213.3c11.8,0,21.3-9.6,21.3-21.3s-9.6-21.3-21.3-21.3Z"/>
  <path class="st0" d="M362.7,277.3h-213.3c-11.8,0-21.3,9.6-21.3,21.3s9.6,21.3,21.3,21.3h213.3c11.8,0,21.3-9.6,21.3-21.3s-9.6-21.3-21.3-21.3Z"/>
</svg>