<?xml version="1.0" encoding="UTF-8"?>
<svg xmlns="http://www.w3.org/2000/svg" version="1.1" viewBox="0 0 512 512">
  <defs>
    <style>
      .cls-1 {
        fill: #4a3ee5;
      }
    </style>
  </defs>
  <!-- Generator: Adobe Illustrator 28.7.1, SVG Export Plug-In . SVG Version: 1.2.0 Build 142)  -->
  <g>
    <g id="Capa_1">
      <g id="Capa_1-2" data-name="Capa_1">
        <g id="Outline">
          <path class="cls-1" d="M256,256c67.4,0,122-54.6,122-122S323.4,12,256,12s-122,54.6-122,122,54.6,121.9,122,122ZM256,52.7c44.9,0,81.3,36.4,81.3,81.3s-36.4,81.3-81.3,81.3-81.3-36.4-81.3-81.3,36.4-81.3,81.3-81.3h0Z"/>
          <path class="cls-1" d="M256,296.7c-101,.1-182.9,82-183,183,0,11.2,9.1,20.3,20.3,20.3s20.3-9.1,20.3-20.3c0-78.6,63.7-142.3,142.3-142.3s142.3,63.7,142.3,142.3,9.1,20.3,20.3,20.3,20.3-9.1,20.3-20.3c-.1-101-82-182.9-183-183h.2Z"/>
        </g>
      </g>
    </g>
  </g>
</svg>